<?xml version="1.0" encoding="utf-8"?>
<!-- Svg Vector Icons : http://www.onlinewebfonts.com/icon -->
<!DOCTYPE svg PUBLIC "-//W3C//DTD SVG 1.1//EN" "http://www.w3.org/Graphics/SVG/1.1/DTD/svg11.dtd">
<svg version="1.1" xmlns="http://www.w3.org/2000/svg" xmlns:xlink="http://www.w3.org/1999/xlink" x="0px" y="0px" viewBox="0 0 1000 1000" enable-background="new 0 0 1000 1000" xml:space="preserve">
<metadata> Svg Vector Icons : http://www.onlinewebfonts.com/icon </metadata>
<g><path d="M408.1,132.5c16.8,0,30.5-13.7,30.5-30.7V40.5c0-16.8-13.7-30.5-30.5-30.5c-17,0-30.7,13.7-30.7,30.5v61.3C377.4,118.8,391.1,132.5,408.1,132.5z"/><path d="M646.2,213.1l43.3-43.3c12-12,12-31.3,0-43.3s-31.3-12-43.3,0l-43.3,43.3c-12,12-12,31.3,0,43.3C614.9,225.1,634.2,225.1,646.2,213.1z"/><path d="M40.5,438.6h61.3c17,0,30.7-13.7,30.7-30.5c0-17-13.7-30.7-30.7-30.7H40.5c-16.8,0-30.5,13.7-30.5,30.7C10,424.9,23.7,438.6,40.5,438.6z"/><path d="M683.7,408.1c0,16.8,13.7,30.5,30.7,30.5h61.1c17,0,30.7-13.7,30.7-30.5c0-17-13.7-30.7-30.7-30.7h-61.1C697.4,377.4,683.7,391.1,683.7,408.1z"/><path d="M169.8,213.1c12,12,31.3,12,43.3,0s12-31.3,0-43.3l-43.3-43.3c-12-12-31.3-12-43.3,0s-12,31.3,0,43.3L169.8,213.1z"/><path d="M775.5,499.9c-10,0-20.1,0.8-30.1,2.1c-32.1-43.7-74.8-77.1-123.3-98.6c-2.5-116-97.4-209.9-213.9-209.9c-118.3,0-214.3,96.2-214.3,214.5c0,33.4,8.1,64.5,21.8,92.6C101.6,505.5,10,599,10,714.2c0,118.3,96,214.5,214.3,214.5c26.3,0,51.8-4.8,75.9-14.1c55.5,48.3,126,75.4,199.6,75.4c73.8,0,144.2-27.1,199.6-75.4c24.2,9.3,49.9,14.1,75.9,14.1c118.3,0,214.5-96.2,214.5-214.5C990,596.1,893.8,499.9,775.5,499.9z M408.1,254.9c76.1,0,138.8,55.8,150.5,128.9c-19.1-3.9-38.7-6.4-58.8-6.4c-87.9,0-169.3,38.1-226.5,102C262,458,255,434,255,408.1C254.9,323.5,323.5,254.9,408.1,254.9z M775.5,867.5c-32.7,0-63-10.6-87.9-28c-44.8,54.1-111.7,89.3-187.7,89.3c-75.8,0-142.6-35.2-187.7-89.3c-24.9,17.4-55.1,28-87.9,28c-84.6,0-153.1-68.6-153.1-153.3c0-84.5,68.4-153,153.1-153c14.9,0,28.8,2.9,42.3,6.8c5.4,1.5,10.8,2.7,15.8,4.8c8.5-16.2,18.9-31.3,30.7-45.4c44.6-53.9,111.3-88.7,186.7-88.7c19.3,0,38.1,2.9,56,7.2c20.1,4.8,39.2,12,57,21.6c44.6,23.6,81.2,60.3,104.4,105.3c18-7.3,37.5-11.6,58.2-11.6c84.6,0,153.3,68.6,153.3,153.3C928.7,798.9,860.1,867.5,775.5,867.5z"/></g>
</svg>