<?xml version="1.0" encoding="utf-8"?>
<!-- Svg Vector Icons : http://www.onlinewebfonts.com/icon -->
<!DOCTYPE svg PUBLIC "-//W3C//DTD SVG 1.1//EN" "http://www.w3.org/Graphics/SVG/1.1/DTD/svg11.dtd">
<svg version="1.1" xmlns="http://www.w3.org/2000/svg" xmlns:xlink="http://www.w3.org/1999/xlink" x="0px" y="0px" viewBox="0 0 1000 1000" enable-background="new 0 0 1000 1000" xml:space="preserve">
<metadata> Svg Vector Icons : http://www.onlinewebfonts.com/icon </metadata>
<g><g><g id="Cloud_1_"><g><path d="M853.3,442.4c1.2-9.5,2.2-20.5,2.2-28.6c0-132.6-110.1-240.5-245.5-240.5c-86.2,0-165.7,44.6-209.9,115.6c-27.5-18.4-59.9-28.3-93.9-28.3c-91.9,0-166.7,73.2-166.7,163.3c0,10,0.9,19.8,2.8,29.5C63.3,481.5,10,554.8,10,638.8c0,107.1,86.6,187.8,201.5,187.8h576.9c111.1,0,201.5-88.5,201.5-197.4C990,544.8,933.6,469.2,853.3,442.4z M788.5,781.5H211.5c-88.6,0-155.4-61.3-155.4-142.6c0-70.8,49.1-131.7,119.3-148.1c6.3-1.5,11.7-5.5,14.9-11c3.1-5.5,3.7-12.1,1.7-18.1c-4.1-12.1-6.3-24.8-6.3-37.7c0-65.1,54.1-118.1,120.6-118.1c32,0,62.1,12.1,84.8,34.1c5.4,5.2,13,7.5,20.4,6.2c7.4-1.3,13.7-6.2,16.8-12.9c32.3-69.6,103.6-114.7,181.7-114.7c110,0,199.4,87.6,199.4,195.3c0,11.7-3.5,35.6-4.5,41.3c-0.2,1.2-0.3,2.5-0.3,3.6c0,11,8.1,20.3,18.9,22.2c69.8,15.8,120.3,78,120.3,148.3C943.8,713.3,874.1,781.5,788.5,781.5z"/></g></g></g><g></g><g></g><g></g><g></g><g></g><g></g><g></g><g></g><g></g><g></g><g></g><g></g><g></g><g></g><g></g></g>
</svg>