<?xml version="1.0" encoding="utf-8"?>
<!-- Svg Vector Icons : http://www.onlinewebfonts.com/icon -->
<!DOCTYPE svg PUBLIC "-//W3C//DTD SVG 1.1//EN" "http://www.w3.org/Graphics/SVG/1.1/DTD/svg11.dtd">
<svg version="1.1" xmlns="http://www.w3.org/2000/svg" xmlns:xlink="http://www.w3.org/1999/xlink" x="0px" y="0px" viewBox="0 0 1000 1000" enable-background="new 0 0 1000 1000" xml:space="preserve">
<metadata> Svg Vector Icons : http://www.onlinewebfonts.com/icon </metadata>
<g><g><g><path d="M500,538c-16.6,0-30.1,13.5-30.1,30.1v391.7c0,16.6,13.5,30.1,30.1,30.1s30.1-13.5,30.1-30.1V568.1C530.1,551.5,516.6,538,500,538z"/><path d="M405.7,372.3c-16.6,0-30.1,13.5-30.1,30.1v391.7c0,16.7,13.5,30.1,30.1,30.1c16.6,0,30.1-13.5,30.1-30.1V402.4C435.8,385.8,422.3,372.3,405.7,372.3z"/><path d="M594.3,447.6c-16.6,0-30.1,13.5-30.1,30.1v391.7c0,16.7,13.5,30.1,30.1,30.1c16.6,0,30.1-13.5,30.1-30.1V477.7C624.5,461.1,611,447.6,594.3,447.6z"/><path d="M893.7,336.6c8.6-19.8,13.1-41.2,13.1-62.9c0-56.1-30.3-108.5-79.1-136.9c-38.6-22.3-86-27.2-127.9-13.5C647.8,51.9,566.2,10,476.8,10c-48.4,0-96.3,12.9-138.4,37.3c-28.2,16.4-53.1,37.3-74,62.4c-31.3,1.9-61.9,11.1-89.2,27C112.7,173,73.8,240.2,73.8,312.2s38.8,139.2,101.4,175.4c11.9,6.9,24.7,12.5,38.2,16.9c15.9,49.9,45.6,93.9,86.5,128c12.8,10.7,31.8,9,42.4-3.8s9-31.8-3.8-42.4c-35.7-29.8-60.4-69.1-71.5-113.6c-2.7-11-11.4-19.5-22.4-22c-14.3-3.4-27.5-8.5-39.3-15.3c-44-25.5-71.3-72.7-71.3-123.2c0-50.6,27.3-97.8,71.3-123.3c21.7-12.6,46.3-19.2,70.1-19.3c0.6,0,2.4,0.2,3,0.2c10,0.3,19-4.3,24.9-12.1c17.8-23.8,39.8-43.4,65.3-58.2c33-19.1,70.4-29.2,108.2-29.2c76.8,0,146.3,39.6,185.8,105.9c8.2,13.8,25.8,18.7,40.1,11.1c29.3-15.6,65.8-15.1,94.8,1.7c30.2,17.5,49,50,49,84.7c0,17.6-4.8,35-13.8,50.1c-6.4,10.8-5.5,24.4,2.3,34.2c20.3,25.5,30.9,56,30.9,88.3c0,50.6-27.3,97.8-71.3,123.3c-31.9,18.5-69.6,24.2-106.3,14.7c-16.2-4.1-32.5,5.6-36.7,21.7c-4.1,16.1,5.6,32.5,21.7,36.7c16.6,4.2,33.4,6.4,50.1,6.4c35.4,0,70.5-9.5,101.4-27.4c62.5-36.2,101.4-103.4,101.4-175.4C926.2,406.9,915,369.4,893.7,336.6z"/></g></g><g></g><g></g><g></g><g></g><g></g><g></g><g></g><g></g><g></g><g></g><g></g><g></g><g></g><g></g><g></g></g>
</svg>