<?xml version="1.0" encoding="utf-8"?>
<!-- Svg Vector Icons : http://www.onlinewebfonts.com/icon -->
<!DOCTYPE svg PUBLIC "-//W3C//DTD SVG 1.1//EN" "http://www.w3.org/Graphics/SVG/1.1/DTD/svg11.dtd">
<svg version="1.1" xmlns="http://www.w3.org/2000/svg" xmlns:xlink="http://www.w3.org/1999/xlink" x="0px" y="0px" viewBox="0 0 1000 1000" enable-background="new 0 0 1000 1000" xml:space="preserve">
<metadata> Svg Vector Icons : http://www.onlinewebfonts.com/icon </metadata>
<g><path d="M578.3,816.5l-31.6-18.6l29.2-20.3c10.5-6.5,14.6-22.7,5.7-35.7c-7.3-9.7-22.7-12.2-33.2-4.9l-19.5,13.8v-25.1c0-12.2-11.3-24.3-25.1-24.3c-13.8,0-25.1,12.2-25.1,24.3v29.2l-21.9-15.4c-13-7.3-26.7-3.2-34,7.3c-8.1,12.2-4.9,27.6,7.3,34.9l27.6,17l-33.2,21.9c-10.5,7.3-14.6,21.9-6.5,33.2c4.9,7.3,13,10.5,20.3,10.5c4.9,0,8.9-0.8,13.8-4.1l26.7-17.8v29.2c0,13,11.3,24.3,25.1,24.3c13.8,0,25.1-11.3,25.1-24.3v-28.4l22.7,15.4c4.9,2.4,9.7,3.2,13,3.2c8.1,0,15.4-3.2,20.3-11.3C592.8,838.4,590.4,824.6,578.3,816.5 M772,791.4l-19.5-13.8l18.6-10.5c8.9-7.3,10.5-20.3,4.1-29.2c-4.9-8.9-18.6-12.2-27.6-5.7l-10.5,6.5v-13c0-10.5-9.7-19.5-21.1-19.5c-10.5,0-19.5,8.9-19.5,19.5v15.4l-13-8.1c-8.9-4.1-21.9-2.4-29.2,6.5c-4.9,9.7-2.4,22.7,7.3,29.2l16.2,9.7L658.5,793c-9.7,6.5-13,18.6-6.5,28.4c3.2,5.7,10.5,8.1,17.8,8.1c3.2,0,7.3-0.8,9.7-2.4l17-11.3v17.8c0,9.7,8.9,19.5,19.5,19.5c11.3,0,21.1-9.7,21.1-19.5v-17l12.2,9.7c4.1,1.6,7.3,2.4,11.3,2.4c6.5,0,13.8-2.4,17-8.9C783.3,809.2,780.9,797.9,772,791.4 M337.5,791.4l-19.5-13.8l17.8-10.5c9.7-7.3,12.2-20.3,4.9-29.2c-5.7-8.9-18.6-12.2-28.4-5.7l-10.5,6.5v-13c0-10.5-8.9-19.5-19.5-19.5c-12.2,0-21.9,8.9-21.9,19.5v15.4l-11.3-8.1c-9.7-4.1-22.7-2.4-28.4,6.5c-6.5,9.7-3.2,22.7,5.7,29.2l17,9.7L223.2,793c-8.9,6.5-12.2,18.6-5.7,28.4c4.1,5.7,9.7,8.1,16.2,8.1c4.1,0,8.9-0.8,11.3-2.4l15.4-11.3v17.8c0,9.7,9.7,19.5,21.9,19.5c10.5,0,19.5-9.7,19.5-19.5v-17l13,9.7c4.1,1.6,7.3,2.4,11.3,2.4c6.5,0,13-2.4,17-8.9C349.7,809.2,347.3,797.9,337.5,791.4 M789.8,271c-8.9,0-17.8,0.8-28.4,2.4c-30.8-94.8-134.6-169.4-248-169.4h-1.6c-173.4,0.8-252.9,111.8-279.6,201.8c-8.9-0.8-17.8-1.6-27.6-1.6c-68.9,0-131.3,34-168.6,93.2l-0.8,0.8c-26.7,50.3-54.3,162.9,43,236.7c30.8,23.5,74.6,25.1,91.6,25.1h0.8h645.2h8.1C881.4,649.5,990,592,990,462.3C990,356.9,900.8,271,789.8,271 M810.1,570.1H170.6h-0.8c-16.2,0-33.2-4.1-38.1-7.3c-24.3-17.8-34-41.3-31.6-72.9c1.6-24.3,13-43.8,13.8-47c27.6-45.4,73.8-50.2,90.8-50.2c17.8,0,29.2,4.9,33.2,8.1c13,9.7,30,11.3,46.2,6.5c13-6.5,24.3-21.9,25.9-36.5c1.6-19.5,22.7-176.7,201.8-177.5h1.6c93.2,0,166.2,73.8,169.4,135.4c0,15.4,6.5,27.6,18.6,35.7c11.3,8.9,25.9,9.7,39.7,6.5c16.2-6.5,33.2-9.7,48.6-9.7c68.9,0,111,53.5,111,101.3C900.8,542.6,827.9,566.1,810.1,570.1"/></g>
</svg>