<?xml version="1.0" encoding="utf-8"?>
<!-- Svg Vector Icons : http://www.onlinewebfonts.com/icon -->
<!DOCTYPE svg PUBLIC "-//W3C//DTD SVG 1.1//EN" "http://www.w3.org/Graphics/SVG/1.1/DTD/svg11.dtd">
<svg version="1.1" xmlns="http://www.w3.org/2000/svg" xmlns:xlink="http://www.w3.org/1999/xlink" x="0px" y="0px" viewBox="0 0 1000 1000" enable-background="new 0 0 1000 1000" xml:space="preserve">
<metadata> Svg Vector Icons : http://www.onlinewebfonts.com/icon </metadata>
<g><path d="M192.1,730.6c10.9-10.3,23.8-15.5,38.6-15.5c14.9,0,27.8,5.2,38.6,15.5c10.9,10.9,16.3,23.8,16.3,38.7c0,14.9-5.4,27.8-16.3,38.7l-38.6,38.7c-10.9,10.9-23.8,16.3-38.6,16.3c-14.9,0-27.8-5.4-38.6-16.3c-10.3-10.9-15.5-23.8-15.5-38.7c0-14.9,5.2-27.8,15.5-38.7L192.1,730.6z M153.4,230.7C143.1,219.9,138,207,138,192.1c0-14.9,5.2-27.8,15.5-38.6c10.9-10.9,23.8-16.3,38.6-16.3c14.9,0,27.8,5.4,38.6,16.3l38.6,38.6c10.9,10.9,16.3,23.8,16.3,38.7c0,14.9-5.4,27.5-16.3,37.8c-10.9,10.9-23.8,16.3-38.6,16.3c-14.9,0-27.8-5.4-38.6-16.3L153.4,230.7z M808.8,268.5c-10.9,10.9-23.8,16.3-38.7,16.3c-14.9,0-27.8-5.4-38.6-16.3c-10.9-10.3-16.3-22.9-16.3-37.8c0-14.9,5.4-27.8,16.3-38.7l38.6-38.6c10.3-10.9,23-16.3,38.2-16.3c15.2,0,27.9,5.4,38.2,16.3c10.9,10.9,16.3,23.8,16.3,38.6c0,14.9-5.4,27.8-16.3,38.7L808.8,268.5z M500.4,173.2c-14.9,0-27.8-5.3-38.6-15.9c-10.9-10.6-16.3-23.3-16.3-38.2v-55c0-14.9,5.4-27.6,16.3-38.2C472.7,15.3,485.5,10,500.4,10c14.9,0,27.6,5.3,38.2,15.9c10.6,10.6,15.9,23.3,15.9,38.2v55c0,14.9-5.3,27.6-15.9,38.2C528.1,167.9,515.3,173.2,500.4,173.2L500.4,173.2z M173.2,499.6c0,14.9-5.3,27.8-15.9,38.7c-10.6,10.9-23.3,16.3-38.2,16.3H65c-14.9,0-27.8-5.4-38.6-16.3C15.4,527.3,10,514.5,10,499.6c0-14.9,5.4-27.6,16.3-38.2c10.9-10.6,23.8-15.9,38.6-15.9h54.1c14.9,0,27.6,5.3,38.2,15.9C167.9,471.9,173.2,484.7,173.2,499.6L173.2,499.6z M846.6,769.3c10.9,10.9,16.3,23.8,16.3,38.7c0,14.9-5.4,27.8-16.3,38.7c-10.3,10.9-23,16.3-38.2,16.3c-15.2,0-27.9-5.4-38.2-16.3l-38.6-38.7c-10.9-10.9-16.3-23.8-16.3-38.7c0-14.9,5.4-27.8,16.3-38.7c10.9-10.3,23.8-15.5,38.6-15.5c14.9,0,27.8,5.2,38.7,15.5L846.6,769.3z M500.4,229c37.2,0,72.3,7.2,105.2,21.5c32.9,14.3,61.7,33.6,86.3,58c24.6,24.3,44.1,53,58.4,85.9c14.3,32.9,21.5,68,21.5,105.2c0,37.8-7.2,73.1-21.5,106.1c-14.3,32.9-33.8,61.6-58.4,85.9c-24.6,24.3-53.4,43.7-86.3,58c-32.9,14.3-68,21.5-105.2,21.5c-37.8,0-73.1-7.2-106.1-21.5c-32.9-14.3-61.6-33.6-85.9-58c-24.3-24.3-43.7-53-58-85.9c-14.3-32.9-21.5-68.3-21.5-106.1c0-37.2,7.2-72.3,21.5-105.2c14.3-32.9,33.6-61.6,58-85.9c24.3-24.3,53-43.7,85.9-58C427.3,236.2,462.6,229,500.4,229L500.4,229z M500.4,666.2c22.9,0,44.5-4.4,64.8-13.3c20.3-8.9,37.9-20.8,52.8-35.6c14.9-14.9,26.8-32.5,35.6-52.8c8.9-20.3,13.3-41.9,13.3-64.8c0-22.9-4.4-44.4-13.3-64.4c-8.9-20-20.8-37.7-35.6-52.8c-14.9-15.2-32.5-27.1-52.8-35.6c-20.3-8.6-41.9-12.9-64.8-12.9c-22.9,0-44.5,4.3-64.8,12.9c-20.3,8.6-37.9,20.5-52.8,35.6c-14.9,15.2-26.8,32.8-35.6,52.8c-8.9,20-13.3,41.5-13.3,64.4c0,22.9,4.4,44.5,13.3,64.8c8.9,20.3,20.8,37.9,35.6,52.8c14.9,14.9,32.5,26.8,52.8,35.6C455.9,661.8,477.5,666.2,500.4,666.2L500.4,666.2z M500.4,826.8c14.9,0,27.6,5.3,38.2,15.9c10.6,10.6,15.9,23.3,15.9,38.2v55c0,14.9-5.3,27.6-15.9,38.2c-10.6,10.6-23.3,15.9-38.2,15.9c-14.9,0-27.8-5.3-38.6-15.9c-10.9-10.6-16.3-23.3-16.3-38.2v-55c0-14.9,5.4-27.6,16.3-38.2C472.7,832.1,485.5,826.8,500.4,826.8L500.4,826.8z M935.9,445.5c14.9,0,27.6,5.3,38.2,15.9c10.6,10.6,15.9,23.3,15.9,38.2c0,14.9-5.3,27.8-15.9,38.7c-10.6,10.9-23.3,16.3-38.2,16.3h-54.1c-14.9,0-27.8-5.4-38.6-16.3c-10.9-10.9-16.3-23.8-16.3-38.7c0-14.9,5.4-27.6,16.3-38.2c10.9-10.6,23.8-15.9,38.6-15.9H935.9L935.9,445.5z"/></g>
</svg>